<svg xmlns="http://www.w3.org/2000/svg" version="1.1" xmlns:xlink="http://www.w3.org/1999/xlink" xmlns:svgjs="http://svgjs.dev/svgjs" width="1440" height="560" preserveAspectRatio="none" viewBox="0 0 1440 560"><g mask="url(&quot;#SvgjsMask4557&quot;)" fill="none"><rect width="1440" height="560" x="0" y="0" fill="url(&quot;#SvgjsLinearGradient4558&quot;)"></rect><path d="M187.9731626077805 58.30360012210104L71.27055637066898-62.54548633479235-49.57853008622439 54.15711990231916 67.1240761508871 175.00620635921254z" fill="rgba(28, 83, 142, 0.4)" class="triangle-float2"></path><path d="M70.054,159.739C99.973,156.974,121.009,134.151,136.821,108.602C153.847,81.091,171.415,48.859,156.419,20.191C140.711,-9.838,103.931,-19.933,70.054,-19.036C37.894,-18.184,8.758,-2.434,-8.734,24.566C-28.089,54.44,-40.08,92.538,-22.155,123.291C-4.317,153.895,34.781,162.998,70.054,159.739" fill="rgba(28, 83, 142, 0.4)" class="triangle-float2"></path><path d="M180.03309788588592 101.14435569428869L109.03322991344841-51.11535252786848-43.22647830870875 19.884515444569033 27.77338966372875 172.1442236667262z" fill="rgba(28, 83, 142, 0.4)" class="triangle-float3"></path><path d="M1408.646,193.172C1446.214,192.224,1473.681,161.575,1491.664,128.577C1508.727,97.269,1515.042,60.373,1498.127,28.985C1480.373,-3.96,1446.059,-26.373,1408.646,-25.477C1372.551,-24.613,1344.217,1.758,1326.293,33.1C1308.522,64.174,1301.666,101.126,1318.042,132.957C1335.823,167.518,1369.791,194.152,1408.646,193.172" fill="rgba(28, 83, 142, 0.4)" class="triangle-float3"></path><path d="M1504.5818484306333 109.68649784884414L1444.3760329070228-47.155013802685744 1287.534521255493 13.050801720924696 1347.7403367791035 169.89231337245457z" fill="rgba(28, 83, 142, 0.4)" class="triangle-float3"></path><path d="M1279.987887128996 137.2631687687096L1446.735640604738 157.7372184607744 1467.2096902968028-9.010535014967672 1300.4619368210608-29.484584707032496z" fill="rgba(28, 83, 142, 0.4)" class="triangle-float3"></path><path d="M-61.606860995876104 444.0763112874475L-9.692005940884897 603.8538060250332 98.17063374170968 392.16145623245626z" fill="rgba(28, 83, 142, 0.4)" class="triangle-float3"></path><path d="M19.119,511.748C34.612,511.192,47.054,501.121,55.529,488.14C65.124,473.444,73.81,455.779,65.885,440.119C57.411,423.373,37.836,414.804,19.119,416.19C2.371,417.431,-8.899,431.555,-17.012,446.259C-24.772,460.323,-29.88,476.864,-22.12,490.928C-14.147,505.379,2.626,512.34,19.119,511.748" fill="rgba(28, 83, 142, 0.4)" class="triangle-float2"></path><path d="M187.27019290063546 517.7970532379991L81.54436720426273 387.23653171322803 56.70967137586439 623.5228789343719z" fill="rgba(28, 83, 142, 0.4)" class="triangle-float1"></path><path d="M1472.556,766.201C1534.487,769.039,1593.007,733.666,1622.735,679.262C1651.367,626.863,1642.947,563.081,1611.169,512.528C1581.455,465.259,1528.375,439.164,1472.556,440.357C1418.819,441.506,1370.332,471.476,1343.843,518.244C1317.737,564.335,1320.059,619.497,1344.464,666.511C1371.181,717.979,1414.628,763.547,1472.556,766.201" fill="rgba(28, 83, 142, 0.4)" class="triangle-float1"></path><path d="M1376.666,575.739C1406.212,576.326,1437.888,566.074,1451.086,539.633C1463.426,514.91,1446.171,488.441,1432.111,464.655C1418.425,441.5,1403.49,415.707,1376.666,413.727C1347.141,411.548,1319.523,429.491,1304.968,455.271C1290.647,480.637,1292.301,511.742,1307.199,536.773C1321.752,561.226,1348.216,575.174,1376.666,575.739" fill="rgba(28, 83, 142, 0.4)" class="triangle-float3"></path><path d="M1447.511,705.553C1494.595,702.64,1531.444,670.43,1555.839,630.054C1581.32,587.881,1599.019,536.911,1575.597,493.561C1551.28,448.554,1498.667,429.579,1447.511,429.556C1396.31,429.533,1346.309,449.994,1319.225,493.445C1290.548,539.452,1285.121,598.681,1313.177,645.069C1340.416,690.105,1394.978,708.803,1447.511,705.553" fill="rgba(28, 83, 142, 0.4)" class="triangle-float3"></path></g><defs><mask id="SvgjsMask4557"><rect width="1440" height="560" fill="#ffffff"></rect></mask><linearGradient x1="15.28%" y1="-39.29%" x2="84.72%" y2="139.29%" gradientUnits="userSpaceOnUse" id="SvgjsLinearGradient4558"><stop stop-color="rgba(125, 230, 231, 1)" offset="0.04"></stop><stop stop-color="rgba(65, 142, 219, 1)" offset="0.28"></stop><stop stop-color="rgba(53, 159, 145, 1)" offset="0.5"></stop><stop stop-color="rgba(51, 0, 158, 1)" offset="0.85"></stop></linearGradient><style>
                @keyframes float1 {
                    0%{transform: translate(0, 0)}
                    50%{transform: translate(-10px, 0)}
                    100%{transform: translate(0, 0)}
                }

                .triangle-float1 {
                    animation: float1 5s infinite;
                }

                @keyframes float2 {
                    0%{transform: translate(0, 0)}
                    50%{transform: translate(-5px, -5px)}
                    100%{transform: translate(0, 0)}
                }

                .triangle-float2 {
                    animation: float2 4s infinite;
                }

                @keyframes float3 {
                    0%{transform: translate(0, 0)}
                    50%{transform: translate(0, -10px)}
                    100%{transform: translate(0, 0)}
                }

                .triangle-float3 {
                    animation: float3 6s infinite;
                }
            </style></defs></svg>