<svg xmlns="http://www.w3.org/2000/svg" version="1.1" xmlns:xlink="http://www.w3.org/1999/xlink" xmlns:svgjs="http://svgjs.dev/svgjs" width="1440" height="560" preserveAspectRatio="none" viewBox="0 0 1440 560"><g mask="url(&quot;#SvgjsMask3998&quot;)" fill="none"><rect width="1440" height="560" x="0" y="0" fill="url(&quot;#SvgjsLinearGradient3999&quot;)"></rect><path d="M207 255.52L264.16 288.52L264.16 354.52L207 387.52L149.84 354.52L149.84 288.52zM264.16 -41.48L321.32 -8.48L321.32 57.52L264.16 90.52L207 57.52L207 -8.48zM264.16 156.52L321.32 189.52L321.32 255.52L264.16 288.52L207 255.52L207 189.52zM264.16 552.52L321.32 585.52L321.32 651.52L264.16 684.52L207 651.52L207 585.52zM492.79 -41.48L549.95 -8.48L549.95 57.52L492.79 90.52L435.64 57.52L435.64 -8.48zM492.79 156.52L549.95 189.52L549.95 255.52L492.79 288.52L435.64 255.52L435.64 189.52zM492.79 354.52L549.95 387.52L549.95 453.52L492.79 486.52L435.64 453.52L435.64 387.52zM1007.23 57.52L1064.39 90.52L1064.39 156.52L1007.23 189.52L950.07 156.52L950.07 90.52zM950.07 156.52L1007.23 189.52L1007.23 255.52L950.07 288.52L892.91 255.52L892.91 189.52zM950.07 354.52L1007.23 387.52L1007.23 453.52L950.07 486.52L892.91 453.52L892.91 387.52zM1178.71 -41.48L1235.87 -8.48L1235.87 57.52L1178.71 90.52L1121.55 57.52L1121.55 -8.48zM1235.87 57.52L1293.02 90.52L1293.02 156.52L1235.87 189.52L1178.71 156.52L1178.71 90.52zM1178.71 354.52L1235.87 387.52L1235.87 453.52L1178.71 486.52L1121.55 453.52L1121.55 387.52zM1350.18 255.52L1407.34 288.52L1407.34 354.52L1350.18 387.52L1293.02 354.52L1293.02 288.52zM1407.34 156.52L1464.5 189.52L1464.5 255.52L1407.34 288.52L1350.18 255.52L1350.18 189.52z" stroke="url(&quot;#SvgjsLinearGradient4000&quot;)" stroke-width="2"></path><path d="M200.4 255.52 a6.6 6.6 0 1 0 13.2 0 a6.6 6.6 0 1 0 -13.2 0zM257.56 288.52 a6.6 6.6 0 1 0 13.2 0 a6.6 6.6 0 1 0 -13.2 0zM257.56 354.52 a6.6 6.6 0 1 0 13.2 0 a6.6 6.6 0 1 0 -13.2 0zM200.4 387.52 a6.6 6.6 0 1 0 13.2 0 a6.6 6.6 0 1 0 -13.2 0zM143.24 354.52 a6.6 6.6 0 1 0 13.2 0 a6.6 6.6 0 1 0 -13.2 0zM143.24 288.52 a6.6 6.6 0 1 0 13.2 0 a6.6 6.6 0 1 0 -13.2 0zM257.56 -41.48 a6.6 6.6 0 1 0 13.2 0 a6.6 6.6 0 1 0 -13.2 0zM314.72 -8.48 a6.6 6.6 0 1 0 13.2 0 a6.6 6.6 0 1 0 -13.2 0zM314.72 57.52 a6.6 6.6 0 1 0 13.2 0 a6.6 6.6 0 1 0 -13.2 0zM257.56 90.52 a6.6 6.6 0 1 0 13.2 0 a6.6 6.6 0 1 0 -13.2 0zM200.4 57.52 a6.6 6.6 0 1 0 13.2 0 a6.6 6.6 0 1 0 -13.2 0zM200.4 -8.48 a6.6 6.6 0 1 0 13.2 0 a6.6 6.6 0 1 0 -13.2 0zM257.56 156.52 a6.6 6.6 0 1 0 13.2 0 a6.6 6.6 0 1 0 -13.2 0zM314.72 189.52 a6.6 6.6 0 1 0 13.2 0 a6.6 6.6 0 1 0 -13.2 0zM314.72 255.52 a6.6 6.6 0 1 0 13.2 0 a6.6 6.6 0 1 0 -13.2 0zM200.4 189.52 a6.6 6.6 0 1 0 13.2 0 a6.6 6.6 0 1 0 -13.2 0zM257.56 552.52 a6.6 6.6 0 1 0 13.2 0 a6.6 6.6 0 1 0 -13.2 0zM314.72 585.52 a6.6 6.6 0 1 0 13.2 0 a6.6 6.6 0 1 0 -13.2 0zM314.72 651.52 a6.6 6.6 0 1 0 13.2 0 a6.6 6.6 0 1 0 -13.2 0zM257.56 684.52 a6.6 6.6 0 1 0 13.2 0 a6.6 6.6 0 1 0 -13.2 0zM200.4 651.52 a6.6 6.6 0 1 0 13.2 0 a6.6 6.6 0 1 0 -13.2 0zM200.4 585.52 a6.6 6.6 0 1 0 13.2 0 a6.6 6.6 0 1 0 -13.2 0zM486.19 -41.48 a6.6 6.6 0 1 0 13.2 0 a6.6 6.6 0 1 0 -13.2 0zM543.35 -8.48 a6.6 6.6 0 1 0 13.2 0 a6.6 6.6 0 1 0 -13.2 0zM543.35 57.52 a6.6 6.6 0 1 0 13.2 0 a6.6 6.6 0 1 0 -13.2 0zM486.19 90.52 a6.6 6.6 0 1 0 13.2 0 a6.6 6.6 0 1 0 -13.2 0zM429.04 57.52 a6.6 6.6 0 1 0 13.2 0 a6.6 6.6 0 1 0 -13.2 0zM429.04 -8.48 a6.6 6.6 0 1 0 13.2 0 a6.6 6.6 0 1 0 -13.2 0zM486.19 156.52 a6.6 6.6 0 1 0 13.2 0 a6.6 6.6 0 1 0 -13.2 0zM543.35 189.52 a6.6 6.6 0 1 0 13.2 0 a6.6 6.6 0 1 0 -13.2 0zM543.35 255.52 a6.6 6.6 0 1 0 13.2 0 a6.6 6.6 0 1 0 -13.2 0zM486.19 288.52 a6.6 6.6 0 1 0 13.2 0 a6.6 6.6 0 1 0 -13.2 0zM429.04 255.52 a6.6 6.6 0 1 0 13.2 0 a6.6 6.6 0 1 0 -13.2 0zM429.04 189.52 a6.6 6.6 0 1 0 13.2 0 a6.6 6.6 0 1 0 -13.2 0zM486.19 354.52 a6.6 6.6 0 1 0 13.2 0 a6.6 6.6 0 1 0 -13.2 0zM543.35 387.52 a6.6 6.6 0 1 0 13.2 0 a6.6 6.6 0 1 0 -13.2 0zM543.35 453.52 a6.6 6.6 0 1 0 13.2 0 a6.6 6.6 0 1 0 -13.2 0zM486.19 486.52 a6.6 6.6 0 1 0 13.2 0 a6.6 6.6 0 1 0 -13.2 0zM429.04 453.52 a6.6 6.6 0 1 0 13.2 0 a6.6 6.6 0 1 0 -13.2 0zM429.04 387.52 a6.6 6.6 0 1 0 13.2 0 a6.6 6.6 0 1 0 -13.2 0zM1000.63 57.52 a6.6 6.6 0 1 0 13.2 0 a6.6 6.6 0 1 0 -13.2 0zM1057.79 90.52 a6.6 6.6 0 1 0 13.2 0 a6.6 6.6 0 1 0 -13.2 0zM1057.79 156.52 a6.6 6.6 0 1 0 13.2 0 a6.6 6.6 0 1 0 -13.2 0zM1000.63 189.52 a6.6 6.6 0 1 0 13.2 0 a6.6 6.6 0 1 0 -13.2 0zM943.47 156.52 a6.6 6.6 0 1 0 13.2 0 a6.6 6.6 0 1 0 -13.2 0zM943.47 90.52 a6.6 6.6 0 1 0 13.2 0 a6.6 6.6 0 1 0 -13.2 0zM1000.63 255.52 a6.6 6.6 0 1 0 13.2 0 a6.6 6.6 0 1 0 -13.2 0zM943.47 288.52 a6.6 6.6 0 1 0 13.2 0 a6.6 6.6 0 1 0 -13.2 0zM886.31 255.52 a6.6 6.6 0 1 0 13.2 0 a6.6 6.6 0 1 0 -13.2 0zM886.31 189.52 a6.6 6.6 0 1 0 13.2 0 a6.6 6.6 0 1 0 -13.2 0zM943.47 354.52 a6.6 6.6 0 1 0 13.2 0 a6.6 6.6 0 1 0 -13.2 0zM1000.63 387.52 a6.6 6.6 0 1 0 13.2 0 a6.6 6.6 0 1 0 -13.2 0zM1000.63 453.52 a6.6 6.6 0 1 0 13.2 0 a6.6 6.6 0 1 0 -13.2 0zM943.47 486.52 a6.6 6.6 0 1 0 13.2 0 a6.6 6.6 0 1 0 -13.2 0zM886.31 453.52 a6.6 6.6 0 1 0 13.2 0 a6.6 6.6 0 1 0 -13.2 0zM886.31 387.52 a6.6 6.6 0 1 0 13.2 0 a6.6 6.6 0 1 0 -13.2 0zM1172.11 -41.48 a6.6 6.6 0 1 0 13.2 0 a6.6 6.6 0 1 0 -13.2 0zM1229.27 -8.48 a6.6 6.6 0 1 0 13.2 0 a6.6 6.6 0 1 0 -13.2 0zM1229.27 57.52 a6.6 6.6 0 1 0 13.2 0 a6.6 6.6 0 1 0 -13.2 0zM1172.11 90.52 a6.6 6.6 0 1 0 13.2 0 a6.6 6.6 0 1 0 -13.2 0zM1114.95 57.52 a6.6 6.6 0 1 0 13.2 0 a6.6 6.6 0 1 0 -13.2 0zM1114.95 -8.48 a6.6 6.6 0 1 0 13.2 0 a6.6 6.6 0 1 0 -13.2 0zM1286.42 90.52 a6.6 6.6 0 1 0 13.2 0 a6.6 6.6 0 1 0 -13.2 0zM1286.42 156.52 a6.6 6.6 0 1 0 13.2 0 a6.6 6.6 0 1 0 -13.2 0zM1229.27 189.52 a6.6 6.6 0 1 0 13.2 0 a6.6 6.6 0 1 0 -13.2 0zM1172.11 156.52 a6.6 6.6 0 1 0 13.2 0 a6.6 6.6 0 1 0 -13.2 0zM1172.11 354.52 a6.6 6.6 0 1 0 13.2 0 a6.6 6.6 0 1 0 -13.2 0zM1229.27 387.52 a6.6 6.6 0 1 0 13.2 0 a6.6 6.6 0 1 0 -13.2 0zM1229.27 453.52 a6.6 6.6 0 1 0 13.2 0 a6.6 6.6 0 1 0 -13.2 0zM1172.11 486.52 a6.6 6.6 0 1 0 13.2 0 a6.6 6.6 0 1 0 -13.2 0zM1114.95 453.52 a6.6 6.6 0 1 0 13.2 0 a6.6 6.6 0 1 0 -13.2 0zM1114.95 387.52 a6.6 6.6 0 1 0 13.2 0 a6.6 6.6 0 1 0 -13.2 0zM1343.58 255.52 a6.6 6.6 0 1 0 13.2 0 a6.6 6.6 0 1 0 -13.2 0zM1400.74 288.52 a6.6 6.6 0 1 0 13.2 0 a6.6 6.6 0 1 0 -13.2 0zM1400.74 354.52 a6.6 6.6 0 1 0 13.2 0 a6.6 6.6 0 1 0 -13.2 0zM1343.58 387.52 a6.6 6.6 0 1 0 13.2 0 a6.6 6.6 0 1 0 -13.2 0zM1286.42 354.52 a6.6 6.6 0 1 0 13.2 0 a6.6 6.6 0 1 0 -13.2 0zM1286.42 288.52 a6.6 6.6 0 1 0 13.2 0 a6.6 6.6 0 1 0 -13.2 0zM1400.74 156.52 a6.6 6.6 0 1 0 13.2 0 a6.6 6.6 0 1 0 -13.2 0zM1457.9 189.52 a6.6 6.6 0 1 0 13.2 0 a6.6 6.6 0 1 0 -13.2 0zM1457.9 255.52 a6.6 6.6 0 1 0 13.2 0 a6.6 6.6 0 1 0 -13.2 0zM1343.58 189.52 a6.6 6.6 0 1 0 13.2 0 a6.6 6.6 0 1 0 -13.2 0z" fill="url(&quot;#SvgjsLinearGradient4000&quot;)"></path><path d="M37.83 -37.94L81.13 -12.94L81.13 37.06L37.83 62.06L-5.47 37.06L-5.47 -12.94zM37.83 112.06L81.13 137.06L81.13 187.06L37.83 212.06L-5.47 187.06L-5.47 137.06zM81.13 337.06L124.44 362.06L124.44 412.06L81.13 437.06L37.83 412.06L37.83 362.06zM37.83 412.06L81.13 437.06L81.13 487.06L37.83 512.06L-5.47 487.06L-5.47 437.06zM167.74 337.06L211.04 362.06L211.04 412.06L167.74 437.06L124.44 412.06L124.44 362.06zM254.34 187.06L297.64 212.06L297.64 262.06L254.34 287.06L211.04 262.06L211.04 212.06zM211.04 262.06L254.34 287.06L254.34 337.06L211.04 362.06L167.74 337.06L167.74 287.06zM211.04 412.06L254.34 437.06L254.34 487.06L211.04 512.06L167.74 487.06L167.74 437.06zM297.64 -37.94L340.95 -12.94L340.95 37.06L297.64 62.06L254.34 37.06L254.34 -12.94zM340.95 187.06L384.25 212.06L384.25 262.06L340.95 287.06L297.64 262.06L297.64 212.06zM340.95 487.06L384.25 512.06L384.25 562.06L340.95 587.06L297.64 562.06L297.64 512.06zM427.55 37.06L470.86 62.06L470.86 112.06L427.55 137.06L384.25 112.06L384.25 62.06zM384.25 112.06L427.55 137.06L427.55 187.06L384.25 212.06L340.95 187.06L340.95 137.06zM384.25 412.06L427.55 437.06L427.55 487.06L384.25 512.06L340.95 487.06L340.95 437.06zM427.55 487.06L470.86 512.06L470.86 562.06L427.55 587.06L384.25 562.06L384.25 512.06zM514.16 37.06L557.46 62.06L557.46 112.06L514.16 137.06L470.86 112.06L470.86 62.06zM470.86 112.06L514.16 137.06L514.16 187.06L470.86 212.06L427.55 187.06L427.55 137.06zM470.86 412.06L514.16 437.06L514.16 487.06L470.86 512.06L427.55 487.06L427.55 437.06zM557.46 -37.94L600.76 -12.94L600.76 37.06L557.46 62.06L514.16 37.06L514.16 -12.94zM600.76 37.06L644.07 62.06L644.07 112.06L600.76 137.06L557.46 112.06L557.46 62.06zM557.46 112.06L600.76 137.06L600.76 187.06L557.46 212.06L514.16 187.06L514.16 137.06zM600.76 487.06L644.07 512.06L644.07 562.06L600.76 587.06L557.46 562.06L557.46 512.06zM687.37 37.06L730.67 62.06L730.67 112.06L687.37 137.06L644.07 112.06L644.07 62.06zM644.07 112.06L687.37 137.06L687.37 187.06L644.07 212.06L600.76 187.06L600.76 137.06zM687.37 187.06L730.67 212.06L730.67 262.06L687.37 287.06L644.07 262.06L644.07 212.06zM644.07 262.06L687.37 287.06L687.37 337.06L644.07 362.06L600.76 337.06L600.76 287.06zM730.67 -37.94L773.97 -12.94L773.97 37.06L730.67 62.06L687.37 37.06L687.37 -12.94zM730.67 112.06L773.97 137.06L773.97 187.06L730.67 212.06L687.37 187.06L687.37 137.06zM773.97 337.06L817.28 362.06L817.28 412.06L773.97 437.06L730.67 412.06L730.67 362.06zM773.97 487.06L817.28 512.06L817.28 562.06L773.97 587.06L730.67 562.06L730.67 512.06zM817.28 262.06L860.58 287.06L860.58 337.06L817.28 362.06L773.97 337.06L773.97 287.06zM860.58 487.06L903.88 512.06L903.88 562.06L860.58 587.06L817.28 562.06L817.28 512.06zM947.18 37.06L990.49 62.06L990.49 112.06L947.18 137.06L903.88 112.06L903.88 62.06zM903.88 112.06L947.18 137.06L947.18 187.06L903.88 212.06L860.58 187.06L860.58 137.06zM947.18 187.06L990.49 212.06L990.49 262.06L947.18 287.06L903.88 262.06L903.88 212.06zM947.18 487.06L990.49 512.06L990.49 562.06L947.18 587.06L903.88 562.06L903.88 512.06zM1033.79 337.06L1077.09 362.06L1077.09 412.06L1033.79 437.06L990.49 412.06L990.49 362.06zM1120.39 37.06L1163.69 62.06L1163.69 112.06L1120.39 137.06L1077.09 112.06L1077.09 62.06zM1077.09 112.06L1120.39 137.06L1120.39 187.06L1077.09 212.06L1033.79 187.06L1033.79 137.06zM1120.39 187.06L1163.69 212.06L1163.69 262.06L1120.39 287.06L1077.09 262.06L1077.09 212.06zM1077.09 262.06L1120.39 287.06L1120.39 337.06L1077.09 362.06L1033.79 337.06L1033.79 287.06zM1120.39 337.06L1163.69 362.06L1163.69 412.06L1120.39 437.06L1077.09 412.06L1077.09 362.06zM1207 37.06L1250.3 62.06L1250.3 112.06L1207 137.06L1163.69 112.06L1163.69 62.06zM1207 337.06L1250.3 362.06L1250.3 412.06L1207 437.06L1163.69 412.06L1163.69 362.06zM1163.69 412.06L1207 437.06L1207 487.06L1163.69 512.06L1120.39 487.06L1120.39 437.06zM1293.6 37.06L1336.9 62.06L1336.9 112.06L1293.6 137.06L1250.3 112.06L1250.3 62.06zM1250.3 112.06L1293.6 137.06L1293.6 187.06L1250.3 212.06L1207 187.06L1207 137.06zM1293.6 187.06L1336.9 212.06L1336.9 262.06L1293.6 287.06L1250.3 262.06L1250.3 212.06zM1250.3 262.06L1293.6 287.06L1293.6 337.06L1250.3 362.06L1207 337.06L1207 287.06zM1293.6 337.06L1336.9 362.06L1336.9 412.06L1293.6 437.06L1250.3 412.06L1250.3 362.06zM1293.6 487.06L1336.9 512.06L1336.9 562.06L1293.6 587.06L1250.3 562.06L1250.3 512.06zM1336.9 -37.94L1380.21 -12.94L1380.21 37.06L1336.9 62.06L1293.6 37.06L1293.6 -12.94zM1380.21 37.06L1423.51 62.06L1423.51 112.06L1380.21 137.06L1336.9 112.06L1336.9 62.06zM1336.9 112.06L1380.21 137.06L1380.21 187.06L1336.9 212.06L1293.6 187.06L1293.6 137.06zM1423.51 -37.94L1466.81 -12.94L1466.81 37.06L1423.51 62.06L1380.21 37.06L1380.21 -12.94zM1466.81 37.06L1510.12 62.06L1510.12 112.06L1466.81 137.06L1423.51 112.06L1423.51 62.06zM1466.81 487.06L1510.12 512.06L1510.12 562.06L1466.81 587.06L1423.51 562.06L1423.51 512.06z" stroke="url(&quot;#SvgjsLinearGradient4001&quot;)" stroke-width="2"></path></g><defs><mask id="SvgjsMask3998"><rect width="1440" height="560" fill="#ffffff"></rect></mask><linearGradient x1="15.28%" y1="-39.29%" x2="84.72%" y2="139.29%" gradientUnits="userSpaceOnUse" id="SvgjsLinearGradient3999"><stop stop-color="#0e2a47" offset="0"></stop><stop stop-color="rgba(0, 80, 158, 1)" offset="0.27"></stop><stop stop-color="rgba(79, 0, 158, 1)" offset="0.67"></stop><stop stop-color="rgba(40, 0, 158, 1)" offset="1"></stop></linearGradient><linearGradient x1="1440" y1="280" x2="0" y2="280" gradientUnits="userSpaceOnUse" id="SvgjsLinearGradient4000"><stop stop-color="rgba(40, 0, 158, 1)" offset="0"></stop><stop stop-color="rgba(3, 80, 93, 1)" offset="0.96"></stop></linearGradient><linearGradient x1="220.03199999999998" y1="-220.02399999999997" x2="1219.9679999999998" y2="780.024" gradientUnits="userSpaceOnUse" id="SvgjsLinearGradient4001"><stop stop-color="rgba(71, 41, 14, 1)" offset="0"></stop><stop stop-color="rgba(0, 42, 158, 1)" offset="1"></stop></linearGradient></defs></svg>