<svg xmlns="http://www.w3.org/2000/svg" version="1.1" xmlns:xlink="http://www.w3.org/1999/xlink" xmlns:svgjs="http://svgjs.dev/svgjs" width="1440" height="560" preserveAspectRatio="none" viewBox="0 0 1440 560"><g mask="url(&quot;#SvgjsMask1000&quot;)" fill="none"><rect width="1440" height="560" x="0" y="0" fill="#0e2a47"></rect><path d="M 0,125 C 57.6,147.6 172.8,251 288,238 C 403.2,225 460.8,74.2 576,60 C 691.2,45.8 748.8,171.4 864,167 C 979.2,162.6 1036.8,24.2 1152,38 C 1267.2,51.8 1382.4,196.4 1440,236L1440 560L0 560z" fill="#184a7e"></path><path d="M 0,311 C 96,341.8 288,451.8 480,465 C 672,478.2 768,373.2 960,377 C 1152,380.8 1344,462.6 1440,484L1440 560L0 560z" fill="#2264ab"></path></g><defs><mask id="SvgjsMask1000"><rect width="1440" height="560" fill="#ffffff"></rect></mask></defs></svg>